solid OpenSCAD_Model
  facet normal 0 0 -1
    outer loop
      vertex 4 35.3941 0
      vertex 4 38 0
      vertex 27.5656 14.4344 0
    endloop
  endfacet
  facet normal 0 -0 -1
    outer loop
      vertex 28.97 12.15 0
      vertex 28.97 1 0
      vertex 25.97 7.42412 0
    endloop
  endfacet
  facet normal 0 -0 -1
    outer loop
      vertex 27.5656 14.4344 0
      vertex 28.97 12.15 0
      vertex 26.2825 13.1116 0
    endloop
  endfacet
  facet normal 0 0 -1
    outer loop
      vertex 47.09 12.15 0
      vertex 44.85 15.15 0
      vertex 47.09 15.15 0
    endloop
  endfacet
  facet normal 0 0 -1
    outer loop
      vertex 21.6341 47.76 0
      vertex 18.24 47.76 0
      vertex 1 50.76 0
    endloop
  endfacet
  facet normal 0 -0 -1
    outer loop
      vertex 43.44 12.15 0
      vertex 43.44 1 0
      vertex 40.44 7.56001 0
    endloop
  endfacet
  facet normal 0 -0 -1
    outer loop
      vertex 40.7858 13.2142 0
      vertex 43.44 12.15 0
      vertex 40.44 10.9541 0
    endloop
  endfacet
  facet normal 0 -0 -1
    outer loop
      vertex 50.8898 15.1102 0
      vertex 60.76 24.88 0
      vertex 47.09 3.68263 0
    endloop
  endfacet
  facet normal 0 0 -1
    outer loop
      vertex 24.24 47.76 0
      vertex 21.6341 47.76 0
      vertex 1 50.76 0
    endloop
  endfacet
  facet normal 0 0 -1
    outer loop
      vertex 1 50.76 0
      vertex 9.63412 47.76 0
      vertex 6.24001 47.76 0
    endloop
  endfacet
  facet normal 0 0 -1
    outer loop
      vertex 4 44 0
      vertex 30.2441 15.15 0
      vertex 4 41.3941 0
    endloop
  endfacet
  facet normal 0 0 -1
    outer loop
      vertex 49.6004 13.1108 0
      vertex 47.09 3.68263 0
      vertex 47.09 12.15 0
    endloop
  endfacet
  facet normal 0 0 -1
    outer loop
      vertex 12.24 47.76 0
      vertex 9.63412 47.76 0
      vertex 1 50.76 0
    endloop
  endfacet
  facet normal -0 0 -1
    outer loop
      vertex 38 4 0
      vertex 32.62 1 0
      vertex 35.62 6.38 0
    endloop
  endfacet
  facet normal 0 0 -1
    outer loop
      vertex 1 50.76 0
      vertex 6.24001 47.76 0
      vertex 4 47.3941 0
    endloop
  endfacet
  facet normal 0 0 -1
    outer loop
      vertex 32.62 12.15 0
      vertex 30.2441 15.15 0
      vertex 32.9607 15.0393 0
    endloop
  endfacet
  facet normal 0 -0 -1
    outer loop
      vertex 32.9607 15.0393 0
      vertex 34.3833 14.577 0
      vertex 32.62 12.15 0
    endloop
  endfacet
  facet normal 0 -0 -1
    outer loop
      vertex 34.3833 14.577 0
      vertex 35.381 12.619 0
      vertex 32.62 12.15 0
    endloop
  endfacet
  facet normal 0 0 -1
    outer loop
      vertex 43.44 12.15 0
      vertex 40.7858 13.2142 0
      vertex 41.0129 13.9133 0
    endloop
  endfacet
  facet normal 0 -0 -1
    outer loop
      vertex 42.6478 14.7463 0
      vertex 43.44 12.15 0
      vertex 41.0129 13.9133 0
    endloop
  endfacet
  facet normal 0 0 -1
    outer loop
      vertex 47.09 15.15 0
      vertex 48.7996 14.5945 0
      vertex 47.09 12.15 0
    endloop
  endfacet
  facet normal 0 0 -1
    outer loop
      vertex 50.8898 15.1102 0
      vertex 47.09 3.68263 0
      vertex 49.8681 13.526 0
    endloop
  endfacet
  facet normal 0 -0 -1
    outer loop
      vertex 44.85 15.15 0
      vertex 47.09 12.15 0
      vertex 43.44 12.15 0
    endloop
  endfacet
  facet normal -0 -0 -1
    outer loop
      vertex 18.24 47.76 0
      vertex 48.7996 14.5945 0
      vertex 15.6341 47.76 0
    endloop
  endfacet
  facet normal 0 0 -1
    outer loop
      vertex 18.24 47.76 0
      vertex 15.6341 47.76 0
      vertex 1 50.76 0
    endloop
  endfacet
  facet normal 0 0 -1
    outer loop
      vertex 44.85 15.15 0
      vertex 43.44 12.15 0
      vertex 42.6478 14.7463 0
    endloop
  endfacet
  facet normal 0 0 -1
    outer loop
      vertex 15.6341 47.76 0
      vertex 12.24 47.76 0
      vertex 1 50.76 0
    endloop
  endfacet
  facet normal -0 -0 -1
    outer loop
      vertex 12.24 47.76 0
      vertex 42.6478 14.7463 0
      vertex 9.63412 47.76 0
    endloop
  endfacet
  facet normal 0 0 -1
    outer loop
      vertex 42.6478 14.7463 0
      vertex 12.24 47.76 0
      vertex 44.85 15.15 0
    endloop
  endfacet
  facet normal 0 -0 -1
    outer loop
      vertex 48.891 14.5031 0
      vertex 49.6004 13.1108 0
      vertex 47.09 12.15 0
    endloop
  endfacet
  facet normal 0 0 -1
    outer loop
      vertex 60.76 24.88 0
      vertex 52.2205 17.1736 0
      vertex 53.2422 18.7578 0
    endloop
  endfacet
  facet normal 0 0 -1
    outer loop
      vertex 48.7996 14.5945 0
      vertex 18.24 47.76 0
      vertex 50.8898 15.1102 0
    endloop
  endfacet
  facet normal 0 0 -1
    outer loop
      vertex 60.76 24.88 0
      vertex 50.8898 15.1102 0
      vertex 52.2205 17.1736 0
    endloop
  endfacet
  facet normal 0 0 -1
    outer loop
      vertex 52.2205 17.1736 0
      vertex 24.24 47.76 0
      vertex 53.2422 18.7578 0
    endloop
  endfacet
  facet normal 0 0 -1
    outer loop
      vertex 60.76 24.88 0
      vertex 53.2422 18.7578 0
      vertex 54.5728 20.8213 0
    endloop
  endfacet
  facet normal 0 0 -1
    outer loop
      vertex 52.2205 17.1736 0
      vertex 21.6341 47.76 0
      vertex 24.24 47.76 0
    endloop
  endfacet
  facet normal 0 0 -1
    outer loop
      vertex 24.24 47.76 0
      vertex 1 50.76 0
      vertex 45.36 50.76 0
    endloop
  endfacet
  facet normal 0 0 -1
    outer loop
      vertex 27.6341 47.76 0
      vertex 24.24 47.76 0
      vertex 45.36 50.76 0
    endloop
  endfacet
  facet normal 0 0 -1
    outer loop
      vertex 60.76 24.88 0
      vertex 54.5728 20.8213 0
      vertex 55.5945 22.4055 0
    endloop
  endfacet
  facet normal 0 0 -1
    outer loop
      vertex 54.5728 20.8213 0
      vertex 30.24 47.76 0
      vertex 55.5945 22.4055 0
    endloop
  endfacet
  facet normal 0 0 -1
    outer loop
      vertex 60.76 24.88 0
      vertex 55.5945 22.4055 0
      vertex 56.9252 24.4689 0
    endloop
  endfacet
  facet normal 0 0 -1
    outer loop
      vertex 54.5728 20.8213 0
      vertex 27.6341 47.76 0
      vertex 30.24 47.76 0
    endloop
  endfacet
  facet normal 0 0 -1
    outer loop
      vertex 30.24 47.76 0
      vertex 27.6341 47.76 0
      vertex 45.36 50.76 0
    endloop
  endfacet
  facet normal 0 0 -1
    outer loop
      vertex 33.6341 47.76 0
      vertex 30.24 47.76 0
      vertex 45.36 50.76 0
    endloop
  endfacet
  facet normal 0 0 -1
    outer loop
      vertex 60.76 24.88 0
      vertex 49.5616 37.8326 0
      vertex 45.36 50.76 0
    endloop
  endfacet
  facet normal 0 0 -1
    outer loop
      vertex 56.9252 24.4689 0
      vertex 33.6341 47.76 0
      vertex 54.5491 29.4509 0
    endloop
  endfacet
  facet normal 0 0 -1
    outer loop
      vertex 56.9252 24.4689 0
      vertex 54.5491 29.4509 0
      vertex 60.76 24.88 0
    endloop
  endfacet
  facet normal 0 0 -1
    outer loop
      vertex 54.5491 29.4509 0
      vertex 33.6341 47.76 0
      vertex 36.24 47.76 0
    endloop
  endfacet
  facet normal 0 0 -1
    outer loop
      vertex 36.24 47.76 0
      vertex 33.6341 47.76 0
      vertex 45.36 50.76 0
    endloop
  endfacet
  facet normal 0 0 -1
    outer loop
      vertex 39.6341 47.76 0
      vertex 36.24 47.76 0
      vertex 45.36 50.76 0
    endloop
  endfacet
  facet normal 0 0 -1
    outer loop
      vertex 54.5491 29.4509 0
      vertex 49.5616 37.8326 0
      vertex 60.76 24.88 0
    endloop
  endfacet
  facet normal 0 0 -1
    outer loop
      vertex 49.5616 37.8326 0
      vertex 39.6341 47.76 0
      vertex 45.7323 44.2677 0
    endloop
  endfacet
  facet normal 0 0 -1
    outer loop
      vertex 49.5616 37.8326 0
      vertex 45.7323 44.2677 0
      vertex 45.36 50.76 0
    endloop
  endfacet
  facet normal 0 0 -1
    outer loop
      vertex 45.7323 44.2677 0
      vertex 39.6341 47.76 0
      vertex 42.24 47.76 0
    endloop
  endfacet
  facet normal 0 0 -1
    outer loop
      vertex 42.24 47.76 0
      vertex 39.6341 47.76 0
      vertex 45.36 50.76 0
    endloop
  endfacet
  facet normal 0 0 -1
    outer loop
      vertex 45.7323 44.2677 0
      vertex 43.6542 47.76 0
      vertex 45.36 50.76 0
    endloop
  endfacet
  facet normal 0 0 -1
    outer loop
      vertex 43.6542 47.76 0
      vertex 42.24 47.76 0
      vertex 45.36 50.76 0
    endloop
  endfacet
  facet normal 0 0 -1
    outer loop
      vertex 43.44 12.15 0
      vertex 40.44 7.56001 0
      vertex 40.44 10.9541 0
    endloop
  endfacet
  facet normal 0 0 -1
    outer loop
      vertex 40.44 7.56001 0
      vertex 43.44 1 0
      vertex 40.44 4.95412 0
    endloop
  endfacet
  facet normal 0 0 -1
    outer loop
      vertex 32.62 12.15 0
      vertex 35.62 9.77411 0
      vertex 35.62 6.38 0
    endloop
  endfacet
  facet normal -0 -0 -1
    outer loop
      vertex 4 38 0
      vertex 4 35.3941 0
      vertex 1 50.76 0
    endloop
  endfacet
  facet normal -0 -0 -1
    outer loop
      vertex 4 44 0
      vertex 4 41.3941 0
      vertex 1 50.76 0
    endloop
  endfacet
  facet normal 0 -0 -1
    outer loop
      vertex 30.2441 15.15 0
      vertex 32.62 12.15 0
      vertex 28.97 12.15 0
    endloop
  endfacet
  facet normal 0 0 -1
    outer loop
      vertex 18.57 12.15 0
      vertex 14.92 12.15 0
      vertex 18.2441 15.15 0
    endloop
  endfacet
  facet normal 0 0 -1
    outer loop
      vertex 1 50.76 0
      vertex 4 26 0
      vertex 1 1 0
    endloop
  endfacet
  facet normal -0 -0 -1
    outer loop
      vertex 4 35.3941 0
      vertex 4 32 0
      vertex 1 50.76 0
    endloop
  endfacet
  facet normal 0 0 -1
    outer loop
      vertex 1 50.76 0
      vertex 4 47.3941 0
      vertex 4 44 0
    endloop
  endfacet
  facet normal 0 0 -1
    outer loop
      vertex 28.97 12.15 0
      vertex 28.97 15.15 0
      vertex 30.2441 15.15 0
    endloop
  endfacet
  facet normal -0 -0 -1
    outer loop
      vertex 4 41.3941 0
      vertex 4 38 0
      vertex 1 50.76 0
    endloop
  endfacet
  facet normal 0 -0 -1
    outer loop
      vertex 6.24001 47.76 0
      vertex 40.7858 13.2142 0
      vertex 4 47.3941 0
    endloop
  endfacet
  facet normal -0 0 -1
    outer loop
      vertex 40.7858 13.2142 0
      vertex 40.44 10.9541 0
      vertex 4 47.3941 0
    endloop
  endfacet
  facet normal 0 0 -1
    outer loop
      vertex 32.9607 15.0393 0
      vertex 30.2441 15.15 0
      vertex 4 44 0
    endloop
  endfacet
  facet normal 0 0 -1
    outer loop
      vertex 28.97 12.15 0
      vertex 27.5656 14.4344 0
      vertex 28.97 15.15 0
    endloop
  endfacet
  facet normal 0 0 -1
    outer loop
      vertex 28.97 1 0
      vertex 25.97 4.03001 0
      vertex 25.97 7.42412 0
    endloop
  endfacet
  facet normal 0 0 -1
    outer loop
      vertex 25.97 10.03 0
      vertex 28.97 12.15 0
      vertex 25.97 7.42412 0
    endloop
  endfacet
  facet normal 0 -0 -1
    outer loop
      vertex 14.8736 15.1264 0
      vertex 14.92 12.15 0
      vertex 13.1473 14.2468 0
    endloop
  endfacet
  facet normal 0 0 -1
    outer loop
      vertex 4 29.3941 0
      vertex 4 32 0
      vertex 18.2441 15.15 0
    endloop
  endfacet
  facet normal 0 0 -1
    outer loop
      vertex 28.97 12.15 0
      vertex 25.97 12.15 0
      vertex 26.2825 13.1116 0
    endloop
  endfacet
  facet normal -0 0 -1
    outer loop
      vertex 28.97 12.15 0
      vertex 25.97 10.03 0
      vertex 25.97 12.15 0
    endloop
  endfacet
  facet normal -0 0 -1
    outer loop
      vertex 27.5656 14.4344 0
      vertex 26.2825 13.1116 0
      vertex 4 35.3941 0
    endloop
  endfacet
  facet normal 0 0 -1
    outer loop
      vertex 18.57 12.15 0
      vertex 18.2441 15.15 0
      vertex 21.57 11.8241 0
    endloop
  endfacet
  facet normal -0 0 -1
    outer loop
      vertex 8 4 0
      vertex 1 1 0
      vertex 5.3941 4 0
    endloop
  endfacet
  facet normal 0 0 -1
    outer loop
      vertex 4 26 0
      vertex 1 50.76 0
      vertex 4 29.3941 0
    endloop
  endfacet
  facet normal 0 0 -1
    outer loop
      vertex 4 29.3941 0
      vertex 1 50.76 0
      vertex 4 32 0
    endloop
  endfacet
  facet normal 0 0 -1
    outer loop
      vertex 14.92 15.15 0
      vertex 18.2441 15.15 0
      vertex 14.92 12.15 0
    endloop
  endfacet
  facet normal 0 0 -1
    outer loop
      vertex 18.2441 15.15 0
      vertex 4 32 0
      vertex 25.97 10.03 0
    endloop
  endfacet
  facet normal 0 -0 -1
    outer loop
      vertex 14.92 15.15 0
      vertex 14.92 12.15 0
      vertex 14.8736 15.1264 0
    endloop
  endfacet
  facet normal 0 0 -1
    outer loop
      vertex 14.8736 15.1264 0
      vertex 4 23.3941 0
      vertex 4 26 0
    endloop
  endfacet
  facet normal 0 -0 -1
    outer loop
      vertex 14.92 12.15 0
      vertex 14.92 1 0
      vertex 11.92 6.08 0
    endloop
  endfacet
  facet normal -0 0 -1
    outer loop
      vertex 4 20 0
      vertex 1 1 0
      vertex 4 23.3941 0
    endloop
  endfacet
  facet normal 0 0 -1
    outer loop
      vertex 11.92 12.15 0
      vertex 12.493 13.9133 0
      vertex 14.92 12.15 0
    endloop
  endfacet
  facet normal -0 0 -1
    outer loop
      vertex 4 23.3941 0
      vertex 1 1 0
      vertex 4 26 0
    endloop
  endfacet
  facet normal 0 0 -1
    outer loop
      vertex 12.493 13.9133 0
      vertex 13.1473 14.2468 0
      vertex 14.92 12.15 0
    endloop
  endfacet
  facet normal -0 0 -1
    outer loop
      vertex 14.8736 15.1264 0
      vertex 13.1473 14.2468 0
      vertex 4 23.3941 0
    endloop
  endfacet
  facet normal 0 0 -1
    outer loop
      vertex 11.92 12.08 0
      vertex 11.92 12.15 0
      vertex 14.92 12.15 0
    endloop
  endfacet
  facet normal 0 -0 -1
    outer loop
      vertex 11.92 6.08 0
      vertex 14.92 1 0
      vertex 11.3941 4 0
    endloop
  endfacet
  facet normal 0 0 -1
    outer loop
      vertex 11.92 12.08 0
      vertex 4 17.3941 0
      vertex 4 20 0
    endloop
  endfacet
  facet normal -0 0 -1
    outer loop
      vertex 4 14 0
      vertex 1 1 0
      vertex 4 17.3941 0
    endloop
  endfacet
  facet normal -0 0 -1
    outer loop
      vertex 4 17.3941 0
      vertex 1 1 0
      vertex 4 20 0
    endloop
  endfacet
  facet normal 0 0 -1
    outer loop
      vertex 11.92 6.08 0
      vertex 11.92 9.47411 0
      vertex 14.92 12.15 0
    endloop
  endfacet
  facet normal 0 0 -1
    outer loop
      vertex 11.92 9.47411 0
      vertex 11.92 12.08 0
      vertex 14.92 12.15 0
    endloop
  endfacet
  facet normal -0 -0 -1
    outer loop
      vertex 11.92 12.08 0
      vertex 11.92 9.47411 0
      vertex 4 17.3941 0
    endloop
  endfacet
  facet normal 0 0 -1
    outer loop
      vertex 50.8898 15.1102 0
      vertex 48.891 14.5031 0
      vertex 48.7996 14.5945 0
    endloop
  endfacet
  facet normal -0 0 -1
    outer loop
      vertex 48.891 14.5031 0
      vertex 47.09 12.15 0
      vertex 48.7996 14.5945 0
    endloop
  endfacet
  facet normal 0 0 -1
    outer loop
      vertex 50.8898 15.1102 0
      vertex 49.8681 13.526 0
      vertex 48.891 14.5031 0
    endloop
  endfacet
  facet normal 0 0 -1
    outer loop
      vertex 49.8681 13.526 0
      vertex 47.09 3.68263 0
      vertex 49.6004 13.1108 0
    endloop
  endfacet
  facet normal -0 0 -1
    outer loop
      vertex 25.97 4.03001 0
      vertex 23.3941 4 0
      vertex 21.57 5.82411 0
    endloop
  endfacet
  facet normal 0 -0 -1
    outer loop
      vertex 25.97 4.03001 0
      vertex 28.97 1 0
      vertex 23.3941 4 0
    endloop
  endfacet
  facet normal 0 0 -1
    outer loop
      vertex 18.57 12.15 0
      vertex 21.57 5.82411 0
      vertex 18.57 1 0
    endloop
  endfacet
  facet normal 0 0 -1
    outer loop
      vertex 21.57 8.43001 0
      vertex 25.97 4.03001 0
      vertex 21.57 5.82411 0
    endloop
  endfacet
  facet normal 0 0 -1
    outer loop
      vertex 18.57 12.15 0
      vertex 21.57 11.8241 0
      vertex 21.57 8.43001 0
    endloop
  endfacet
  facet normal 0 0 -1
    outer loop
      vertex 21.57 11.8241 0
      vertex 18.2441 15.15 0
      vertex 25.97 10.03 0
    endloop
  endfacet
  facet normal -0 -0 -1
    outer loop
      vertex 11.3941 4 0
      vertex 14.92 1 0
      vertex 8 4 0
    endloop
  endfacet
  facet normal -0 -0 -1
    outer loop
      vertex 25.97 10.03 0
      vertex 25.97 7.42412 0
      vertex 21.57 11.8241 0
    endloop
  endfacet
  facet normal 0 0 -1
    outer loop
      vertex 43.44 1 0
      vertex 40.44 4 0
      vertex 40.44 4.95412 0
    endloop
  endfacet
  facet normal 0 -0 -1
    outer loop
      vertex 8 4 0
      vertex 14.92 1 0
      vertex 1 1 0
    endloop
  endfacet
  facet normal -0 -0 -1
    outer loop
      vertex 40.44 4 0
      vertex 43.44 1 0
      vertex 38 4 0
    endloop
  endfacet
  facet normal -0 0 -1
    outer loop
      vertex 4 8 0
      vertex 1 1 0
      vertex 4 11.3941 0
    endloop
  endfacet
  facet normal 0 0 -1
    outer loop
      vertex 11.92 6.08 0
      vertex 4 11.3941 0
      vertex 4 14 0
    endloop
  endfacet
  facet normal -0 0 -1
    outer loop
      vertex 4 11.3941 0
      vertex 1 1 0
      vertex 4 14 0
    endloop
  endfacet
  facet normal -0 0 -1
    outer loop
      vertex 11.92 6.08 0
      vertex 11.3941 4 0
      vertex 4 11.3941 0
    endloop
  endfacet
  facet normal 0 -0 -1
    outer loop
      vertex 38 4 0
      vertex 43.44 1 0
      vertex 32.62 1 0
    endloop
  endfacet
  facet normal 0 -0 -1
    outer loop
      vertex 23.3941 4 0
      vertex 28.97 1 0
      vertex 18.57 1 0
    endloop
  endfacet
  facet normal -0 0 -1
    outer loop
      vertex 35.62 6.38 0
      vertex 32.62 1 0
      vertex 32.62 12.15 0
    endloop
  endfacet
  facet normal 0 0 -1
    outer loop
      vertex 40.44 7.56001 0
      vertex 35.62 9.77411 0
      vertex 35.381 12.619 0
    endloop
  endfacet
  facet normal 0 0 -1
    outer loop
      vertex 35.62 9.77411 0
      vertex 32.62 12.15 0
      vertex 35.381 12.619 0
    endloop
  endfacet
  facet normal -0 -0 -1
    outer loop
      vertex 40.44 7.56001 0
      vertex 40.44 4.95412 0
      vertex 35.62 9.77411 0
    endloop
  endfacet
  facet normal 0 -0 -1
    outer loop
      vertex 21.57 4 0
      vertex 23.3941 4 0
      vertex 18.57 1 0
    endloop
  endfacet
  facet normal -0 -0 -1
    outer loop
      vertex 21.57 8.43001 0
      vertex 21.57 5.82411 0
      vertex 18.57 12.15 0
    endloop
  endfacet
  facet normal 0 -0 -1
    outer loop
      vertex 21.57 5.82411 0
      vertex 21.57 4 0
      vertex 18.57 1 0
    endloop
  endfacet
  facet normal 0 0 -1
    outer loop
      vertex 8 4 0
      vertex 5.3941 4 0
      vertex 4 8 0
    endloop
  endfacet
  facet normal -0 0 -1
    outer loop
      vertex 5.3941 4 0
      vertex 1 1 0
      vertex 4 4 0
    endloop
  endfacet
  facet normal 0 0 -1
    outer loop
      vertex 5.3941 4 0
      vertex 4 5.3941 0
      vertex 4 8 0
    endloop
  endfacet
  facet normal -0 0 -1
    outer loop
      vertex 4 4 0
      vertex 1 1 0
      vertex 4 5.3941 0
    endloop
  endfacet
  facet normal -0 0 -1
    outer loop
      vertex 4 5.3941 0
      vertex 1 1 0
      vertex 4 8 0
    endloop
  endfacet
  facet normal 0 0 1
    outer loop
      vertex 27.5656 14.4344 3
      vertex 4 38 3
      vertex 4 35.3941 3
    endloop
  endfacet
  facet normal -0 0 1
    outer loop
      vertex 25.97 7.42412 3
      vertex 28.97 1 3
      vertex 28.97 12.15 3
    endloop
  endfacet
  facet normal -0 0 1
    outer loop
      vertex 26.2825 13.1116 3
      vertex 28.97 12.15 3
      vertex 27.5656 14.4344 3
    endloop
  endfacet
  facet normal 0 0 1
    outer loop
      vertex 47.09 15.15 3
      vertex 44.85 15.15 3
      vertex 47.09 12.15 3
    endloop
  endfacet
  facet normal 0 0 1
    outer loop
      vertex 1 50.76 3
      vertex 18.24 47.76 3
      vertex 21.6341 47.76 3
    endloop
  endfacet
  facet normal -0 0 1
    outer loop
      vertex 40.44 7.56001 3
      vertex 43.44 1 3
      vertex 43.44 12.15 3
    endloop
  endfacet
  facet normal 0 0 1
    outer loop
      vertex 40.44 10.9541 3
      vertex 43.44 12.15 3
      vertex 40.7858 13.2142 3
    endloop
  endfacet
  facet normal 0 0 1
    outer loop
      vertex 47.09 3.68263 3
      vertex 60.76 24.88 3
      vertex 50.8898 15.1102 3
    endloop
  endfacet
  facet normal 0 0 1
    outer loop
      vertex 1 50.76 3
      vertex 21.6341 47.76 3
      vertex 24.24 47.76 3
    endloop
  endfacet
  facet normal 0 -0 1
    outer loop
      vertex 6.24001 47.76 3
      vertex 9.63412 47.76 3
      vertex 1 50.76 3
    endloop
  endfacet
  facet normal -0 0 1
    outer loop
      vertex 4 41.3941 3
      vertex 30.2441 15.15 3
      vertex 4 44 3
    endloop
  endfacet
  facet normal -0 0 1
    outer loop
      vertex 47.09 12.15 3
      vertex 47.09 3.68263 3
      vertex 49.6004 13.1108 3
    endloop
  endfacet
  facet normal 0 0 1
    outer loop
      vertex 1 50.76 3
      vertex 9.63412 47.76 3
      vertex 12.24 47.76 3
    endloop
  endfacet
  facet normal 0 0 1
    outer loop
      vertex 35.62 6.38 3
      vertex 32.62 1 3
      vertex 38 4 3
    endloop
  endfacet
  facet normal 0 -0 1
    outer loop
      vertex 4 47.3941 3
      vertex 6.24001 47.76 3
      vertex 1 50.76 3
    endloop
  endfacet
  facet normal 0 0 1
    outer loop
      vertex 32.9607 15.0393 3
      vertex 30.2441 15.15 3
      vertex 32.62 12.15 3
    endloop
  endfacet
  facet normal 0 0 1
    outer loop
      vertex 32.62 12.15 3
      vertex 34.3833 14.577 3
      vertex 32.9607 15.0393 3
    endloop
  endfacet
  facet normal 0 0 1
    outer loop
      vertex 32.62 12.15 3
      vertex 35.381 12.619 3
      vertex 34.3833 14.577 3
    endloop
  endfacet
  facet normal 0 0 1
    outer loop
      vertex 41.0129 13.9133 3
      vertex 40.7858 13.2142 3
      vertex 43.44 12.15 3
    endloop
  endfacet
  facet normal -0 0 1
    outer loop
      vertex 41.0129 13.9133 3
      vertex 43.44 12.15 3
      vertex 42.6478 14.7463 3
    endloop
  endfacet
  facet normal 0 0 1
    outer loop
      vertex 47.09 12.15 3
      vertex 48.7996 14.5945 3
      vertex 47.09 15.15 3
    endloop
  endfacet
  facet normal -0 0 1
    outer loop
      vertex 49.8681 13.526 3
      vertex 47.09 3.68263 3
      vertex 50.8898 15.1102 3
    endloop
  endfacet
  facet normal 0 0 1
    outer loop
      vertex 43.44 12.15 3
      vertex 47.09 12.15 3
      vertex 44.85 15.15 3
    endloop
  endfacet
  facet normal -0 0 1
    outer loop
      vertex 15.6341 47.76 3
      vertex 48.7996 14.5945 3
      vertex 18.24 47.76 3
    endloop
  endfacet
  facet normal 0 0 1
    outer loop
      vertex 1 50.76 3
      vertex 15.6341 47.76 3
      vertex 18.24 47.76 3
    endloop
  endfacet
  facet normal -0 0 1
    outer loop
      vertex 42.6478 14.7463 3
      vertex 43.44 12.15 3
      vertex 44.85 15.15 3
    endloop
  endfacet
  facet normal 0 0 1
    outer loop
      vertex 1 50.76 3
      vertex 12.24 47.76 3
      vertex 15.6341 47.76 3
    endloop
  endfacet
  facet normal -0 0 1
    outer loop
      vertex 9.63412 47.76 3
      vertex 42.6478 14.7463 3
      vertex 12.24 47.76 3
    endloop
  endfacet
  facet normal 0 0 1
    outer loop
      vertex 44.85 15.15 3
      vertex 12.24 47.76 3
      vertex 42.6478 14.7463 3
    endloop
  endfacet
  facet normal 0 0 1
    outer loop
      vertex 47.09 12.15 3
      vertex 49.6004 13.1108 3
      vertex 48.891 14.5031 3
    endloop
  endfacet
  facet normal -0 0 1
    outer loop
      vertex 53.2422 18.7578 3
      vertex 52.2205 17.1736 3
      vertex 60.76 24.88 3
    endloop
  endfacet
  facet normal 0 0 1
    outer loop
      vertex 50.8898 15.1102 3
      vertex 18.24 47.76 3
      vertex 48.7996 14.5945 3
    endloop
  endfacet
  facet normal -0 0 1
    outer loop
      vertex 52.2205 17.1736 3
      vertex 50.8898 15.1102 3
      vertex 60.76 24.88 3
    endloop
  endfacet
  facet normal 0 0 1
    outer loop
      vertex 53.2422 18.7578 3
      vertex 24.24 47.76 3
      vertex 52.2205 17.1736 3
    endloop
  endfacet
  facet normal -0 0 1
    outer loop
      vertex 54.5728 20.8213 3
      vertex 53.2422 18.7578 3
      vertex 60.76 24.88 3
    endloop
  endfacet
  facet normal 0 0 1
    outer loop
      vertex 24.24 47.76 3
      vertex 21.6341 47.76 3
      vertex 52.2205 17.1736 3
    endloop
  endfacet
  facet normal 0 0 1
    outer loop
      vertex 45.36 50.76 3
      vertex 1 50.76 3
      vertex 24.24 47.76 3
    endloop
  endfacet
  facet normal 0 0 1
    outer loop
      vertex 45.36 50.76 3
      vertex 24.24 47.76 3
      vertex 27.6341 47.76 3
    endloop
  endfacet
  facet normal -0 0 1
    outer loop
      vertex 55.5945 22.4055 3
      vertex 54.5728 20.8213 3
      vertex 60.76 24.88 3
    endloop
  endfacet
  facet normal 0 0 1
    outer loop
      vertex 55.5945 22.4055 3
      vertex 30.24 47.76 3
      vertex 54.5728 20.8213 3
    endloop
  endfacet
  facet normal -0 0 1
    outer loop
      vertex 56.9252 24.4689 3
      vertex 55.5945 22.4055 3
      vertex 60.76 24.88 3
    endloop
  endfacet
  facet normal 0 0 1
    outer loop
      vertex 30.24 47.76 3
      vertex 27.6341 47.76 3
      vertex 54.5728 20.8213 3
    endloop
  endfacet
  facet normal 0 0 1
    outer loop
      vertex 45.36 50.76 3
      vertex 27.6341 47.76 3
      vertex 30.24 47.76 3
    endloop
  endfacet
  facet normal 0 0 1
    outer loop
      vertex 45.36 50.76 3
      vertex 30.24 47.76 3
      vertex 33.6341 47.76 3
    endloop
  endfacet
  facet normal 0 0 1
    outer loop
      vertex 45.36 50.76 3
      vertex 49.5616 37.8326 3
      vertex 60.76 24.88 3
    endloop
  endfacet
  facet normal 0 0 1
    outer loop
      vertex 54.5491 29.4509 3
      vertex 33.6341 47.76 3
      vertex 56.9252 24.4689 3
    endloop
  endfacet
  facet normal 0 0 1
    outer loop
      vertex 60.76 24.88 3
      vertex 54.5491 29.4509 3
      vertex 56.9252 24.4689 3
    endloop
  endfacet
  facet normal 0 0 1
    outer loop
      vertex 36.24 47.76 3
      vertex 33.6341 47.76 3
      vertex 54.5491 29.4509 3
    endloop
  endfacet
  facet normal 0 0 1
    outer loop
      vertex 45.36 50.76 3
      vertex 33.6341 47.76 3
      vertex 36.24 47.76 3
    endloop
  endfacet
  facet normal 0 0 1
    outer loop
      vertex 45.36 50.76 3
      vertex 36.24 47.76 3
      vertex 39.6341 47.76 3
    endloop
  endfacet
  facet normal 0 0 1
    outer loop
      vertex 60.76 24.88 3
      vertex 49.5616 37.8326 3
      vertex 54.5491 29.4509 3
    endloop
  endfacet
  facet normal 0 0 1
    outer loop
      vertex 45.7323 44.2677 3
      vertex 39.6341 47.76 3
      vertex 49.5616 37.8326 3
    endloop
  endfacet
  facet normal 0 0 1
    outer loop
      vertex 45.36 50.76 3
      vertex 45.7323 44.2677 3
      vertex 49.5616 37.8326 3
    endloop
  endfacet
  facet normal 0 0 1
    outer loop
      vertex 42.24 47.76 3
      vertex 39.6341 47.76 3
      vertex 45.7323 44.2677 3
    endloop
  endfacet
  facet normal 0 0 1
    outer loop
      vertex 45.36 50.76 3
      vertex 39.6341 47.76 3
      vertex 42.24 47.76 3
    endloop
  endfacet
  facet normal 0 0 1
    outer loop
      vertex 45.36 50.76 3
      vertex 43.6542 47.76 3
      vertex 45.7323 44.2677 3
    endloop
  endfacet
  facet normal 0 0 1
    outer loop
      vertex 45.36 50.76 3
      vertex 42.24 47.76 3
      vertex 43.6542 47.76 3
    endloop
  endfacet
  facet normal -0 0 1
    outer loop
      vertex 40.44 10.9541 3
      vertex 40.44 7.56001 3
      vertex 43.44 12.15 3
    endloop
  endfacet
  facet normal -0 0 1
    outer loop
      vertex 40.44 4.95412 3
      vertex 43.44 1 3
      vertex 40.44 7.56001 3
    endloop
  endfacet
  facet normal 0 -0 1
    outer loop
      vertex 35.62 6.38 3
      vertex 35.62 9.77411 3
      vertex 32.62 12.15 3
    endloop
  endfacet
  facet normal 0 0 1
    outer loop
      vertex 1 50.76 3
      vertex 4 35.3941 3
      vertex 4 38 3
    endloop
  endfacet
  facet normal 0 0 1
    outer loop
      vertex 1 50.76 3
      vertex 4 41.3941 3
      vertex 4 44 3
    endloop
  endfacet
  facet normal 0 0 1
    outer loop
      vertex 28.97 12.15 3
      vertex 32.62 12.15 3
      vertex 30.2441 15.15 3
    endloop
  endfacet
  facet normal 0 0 1
    outer loop
      vertex 18.2441 15.15 3
      vertex 14.92 12.15 3
      vertex 18.57 12.15 3
    endloop
  endfacet
  facet normal 0 0 1
    outer loop
      vertex 1 1 3
      vertex 4 26 3
      vertex 1 50.76 3
    endloop
  endfacet
  facet normal 0 0 1
    outer loop
      vertex 1 50.76 3
      vertex 4 32 3
      vertex 4 35.3941 3
    endloop
  endfacet
  facet normal 0 -0 1
    outer loop
      vertex 4 44 3
      vertex 4 47.3941 3
      vertex 1 50.76 3
    endloop
  endfacet
  facet normal 0 0 1
    outer loop
      vertex 30.2441 15.15 3
      vertex 28.97 15.15 3
      vertex 28.97 12.15 3
    endloop
  endfacet
  facet normal 0 0 1
    outer loop
      vertex 1 50.76 3
      vertex 4 38 3
      vertex 4 41.3941 3
    endloop
  endfacet
  facet normal -0 0 1
    outer loop
      vertex 4 47.3941 3
      vertex 40.7858 13.2142 3
      vertex 6.24001 47.76 3
    endloop
  endfacet
  facet normal 0 0 1
    outer loop
      vertex 4 47.3941 3
      vertex 40.44 10.9541 3
      vertex 40.7858 13.2142 3
    endloop
  endfacet
  facet normal 0 0 1
    outer loop
      vertex 4 44 3
      vertex 30.2441 15.15 3
      vertex 32.9607 15.0393 3
    endloop
  endfacet
  facet normal 0 0 1
    outer loop
      vertex 28.97 15.15 3
      vertex 27.5656 14.4344 3
      vertex 28.97 12.15 3
    endloop
  endfacet
  facet normal 0 0 1
    outer loop
      vertex 25.97 7.42412 3
      vertex 25.97 4.03001 3
      vertex 28.97 1 3
    endloop
  endfacet
  facet normal 0 0 1
    outer loop
      vertex 25.97 7.42412 3
      vertex 28.97 12.15 3
      vertex 25.97 10.03 3
    endloop
  endfacet
  facet normal -0 0 1
    outer loop
      vertex 13.1473 14.2468 3
      vertex 14.92 12.15 3
      vertex 14.8736 15.1264 3
    endloop
  endfacet
  facet normal 0 0 1
    outer loop
      vertex 18.2441 15.15 3
      vertex 4 32 3
      vertex 4 29.3941 3
    endloop
  endfacet
  facet normal 0 0 1
    outer loop
      vertex 26.2825 13.1116 3
      vertex 25.97 12.15 3
      vertex 28.97 12.15 3
    endloop
  endfacet
  facet normal -0 0 1
    outer loop
      vertex 25.97 12.15 3
      vertex 25.97 10.03 3
      vertex 28.97 12.15 3
    endloop
  endfacet
  facet normal 0 0 1
    outer loop
      vertex 4 35.3941 3
      vertex 26.2825 13.1116 3
      vertex 27.5656 14.4344 3
    endloop
  endfacet
  facet normal 0 0 1
    outer loop
      vertex 21.57 11.8241 3
      vertex 18.2441 15.15 3
      vertex 18.57 12.15 3
    endloop
  endfacet
  facet normal -0 0 1
    outer loop
      vertex 5.3941 4 3
      vertex 1 1 3
      vertex 8 4 3
    endloop
  endfacet
  facet normal 0 0 1
    outer loop
      vertex 4 29.3941 3
      vertex 1 50.76 3
      vertex 4 26 3
    endloop
  endfacet
  facet normal 0 0 1
    outer loop
      vertex 4 32 3
      vertex 1 50.76 3
      vertex 4 29.3941 3
    endloop
  endfacet
  facet normal 0 0 1
    outer loop
      vertex 14.92 12.15 3
      vertex 18.2441 15.15 3
      vertex 14.92 15.15 3
    endloop
  endfacet
  facet normal 0 0 1
    outer loop
      vertex 25.97 10.03 3
      vertex 4 32 3
      vertex 18.2441 15.15 3
    endloop
  endfacet
  facet normal -0 0 1
    outer loop
      vertex 14.8736 15.1264 3
      vertex 14.92 12.15 3
      vertex 14.92 15.15 3
    endloop
  endfacet
  facet normal 0 0 1
    outer loop
      vertex 4 26 3
      vertex 4 23.3941 3
      vertex 14.8736 15.1264 3
    endloop
  endfacet
  facet normal -0 0 1
    outer loop
      vertex 11.92 6.08 3
      vertex 14.92 1 3
      vertex 14.92 12.15 3
    endloop
  endfacet
  facet normal 0 0 1
    outer loop
      vertex 4 23.3941 3
      vertex 1 1 3
      vertex 4 20 3
    endloop
  endfacet
  facet normal 0 0 1
    outer loop
      vertex 14.92 12.15 3
      vertex 12.493 13.9133 3
      vertex 11.92 12.15 3
    endloop
  endfacet
  facet normal 0 0 1
    outer loop
      vertex 4 26 3
      vertex 1 1 3
      vertex 4 23.3941 3
    endloop
  endfacet
  facet normal 0 0 1
    outer loop
      vertex 14.92 12.15 3
      vertex 13.1473 14.2468 3
      vertex 12.493 13.9133 3
    endloop
  endfacet
  facet normal 0 0 1
    outer loop
      vertex 4 23.3941 3
      vertex 13.1473 14.2468 3
      vertex 14.8736 15.1264 3
    endloop
  endfacet
  facet normal 0 0 1
    outer loop
      vertex 14.92 12.15 3
      vertex 11.92 12.15 3
      vertex 11.92 12.08 3
    endloop
  endfacet
  facet normal -0 0 1
    outer loop
      vertex 11.3941 4 3
      vertex 14.92 1 3
      vertex 11.92 6.08 3
    endloop
  endfacet
  facet normal 0 0 1
    outer loop
      vertex 4 20 3
      vertex 4 17.3941 3
      vertex 11.92 12.08 3
    endloop
  endfacet
  facet normal 0 0 1
    outer loop
      vertex 4 17.3941 3
      vertex 1 1 3
      vertex 4 14 3
    endloop
  endfacet
  facet normal 0 0 1
    outer loop
      vertex 4 20 3
      vertex 1 1 3
      vertex 4 17.3941 3
    endloop
  endfacet
  facet normal 0 0 1
    outer loop
      vertex 14.92 12.15 3
      vertex 11.92 9.47411 3
      vertex 11.92 6.08 3
    endloop
  endfacet
  facet normal 0 0 1
    outer loop
      vertex 14.92 12.15 3
      vertex 11.92 12.08 3
      vertex 11.92 9.47411 3
    endloop
  endfacet
  facet normal 0 0 1
    outer loop
      vertex 4 17.3941 3
      vertex 11.92 9.47411 3
      vertex 11.92 12.08 3
    endloop
  endfacet
  facet normal -0 0 1
    outer loop
      vertex 48.7996 14.5945 3
      vertex 48.891 14.5031 3
      vertex 50.8898 15.1102 3
    endloop
  endfacet
  facet normal 0 0 1
    outer loop
      vertex 48.7996 14.5945 3
      vertex 47.09 12.15 3
      vertex 48.891 14.5031 3
    endloop
  endfacet
  facet normal -0 0 1
    outer loop
      vertex 48.891 14.5031 3
      vertex 49.8681 13.526 3
      vertex 50.8898 15.1102 3
    endloop
  endfacet
  facet normal -0 0 1
    outer loop
      vertex 49.6004 13.1108 3
      vertex 47.09 3.68263 3
      vertex 49.8681 13.526 3
    endloop
  endfacet
  facet normal 0 0 1
    outer loop
      vertex 21.57 5.82411 3
      vertex 23.3941 4 3
      vertex 25.97 4.03001 3
    endloop
  endfacet
  facet normal -0 0 1
    outer loop
      vertex 23.3941 4 3
      vertex 28.97 1 3
      vertex 25.97 4.03001 3
    endloop
  endfacet
  facet normal 0 0 1
    outer loop
      vertex 18.57 1 3
      vertex 21.57 5.82411 3
      vertex 18.57 12.15 3
    endloop
  endfacet
  facet normal -0 0 1
    outer loop
      vertex 21.57 5.82411 3
      vertex 25.97 4.03001 3
      vertex 21.57 8.43001 3
    endloop
  endfacet
  facet normal 0 -0 1
    outer loop
      vertex 21.57 8.43001 3
      vertex 21.57 11.8241 3
      vertex 18.57 12.15 3
    endloop
  endfacet
  facet normal 0 0 1
    outer loop
      vertex 25.97 10.03 3
      vertex 18.2441 15.15 3
      vertex 21.57 11.8241 3
    endloop
  endfacet
  facet normal -0 0 1
    outer loop
      vertex 8 4 3
      vertex 14.92 1 3
      vertex 11.3941 4 3
    endloop
  endfacet
  facet normal 0 0 1
    outer loop
      vertex 21.57 11.8241 3
      vertex 25.97 7.42412 3
      vertex 25.97 10.03 3
    endloop
  endfacet
  facet normal 0 0 1
    outer loop
      vertex 40.44 4.95412 3
      vertex 40.44 4 3
      vertex 43.44 1 3
    endloop
  endfacet
  facet normal 0 0 1
    outer loop
      vertex 1 1 3
      vertex 14.92 1 3
      vertex 8 4 3
    endloop
  endfacet
  facet normal -0 0 1
    outer loop
      vertex 38 4 3
      vertex 43.44 1 3
      vertex 40.44 4 3
    endloop
  endfacet
  facet normal 0 0 1
    outer loop
      vertex 4 11.3941 3
      vertex 1 1 3
      vertex 4 8 3
    endloop
  endfacet
  facet normal 0 0 1
    outer loop
      vertex 4 14 3
      vertex 4 11.3941 3
      vertex 11.92 6.08 3
    endloop
  endfacet
  facet normal 0 0 1
    outer loop
      vertex 4 14 3
      vertex 1 1 3
      vertex 4 11.3941 3
    endloop
  endfacet
  facet normal 0 0 1
    outer loop
      vertex 4 11.3941 3
      vertex 11.3941 4 3
      vertex 11.92 6.08 3
    endloop
  endfacet
  facet normal 0 0 1
    outer loop
      vertex 32.62 1 3
      vertex 43.44 1 3
      vertex 38 4 3
    endloop
  endfacet
  facet normal 0 0 1
    outer loop
      vertex 18.57 1 3
      vertex 28.97 1 3
      vertex 23.3941 4 3
    endloop
  endfacet
  facet normal 0 0 1
    outer loop
      vertex 32.62 12.15 3
      vertex 32.62 1 3
      vertex 35.62 6.38 3
    endloop
  endfacet
  facet normal 0 0 1
    outer loop
      vertex 35.381 12.619 3
      vertex 35.62 9.77411 3
      vertex 40.44 7.56001 3
    endloop
  endfacet
  facet normal 0 0 1
    outer loop
      vertex 35.381 12.619 3
      vertex 32.62 12.15 3
      vertex 35.62 9.77411 3
    endloop
  endfacet
  facet normal 0 0 1
    outer loop
      vertex 35.62 9.77411 3
      vertex 40.44 4.95412 3
      vertex 40.44 7.56001 3
    endloop
  endfacet
  facet normal 0 0 1
    outer loop
      vertex 18.57 1 3
      vertex 23.3941 4 3
      vertex 21.57 4 3
    endloop
  endfacet
  facet normal 0 0 1
    outer loop
      vertex 18.57 12.15 3
      vertex 21.57 5.82411 3
      vertex 21.57 8.43001 3
    endloop
  endfacet
  facet normal 0 0 1
    outer loop
      vertex 18.57 1 3
      vertex 21.57 4 3
      vertex 21.57 5.82411 3
    endloop
  endfacet
  facet normal 0 0 1
    outer loop
      vertex 4 8 3
      vertex 5.3941 4 3
      vertex 8 4 3
    endloop
  endfacet
  facet normal -0 0 1
    outer loop
      vertex 4 4 3
      vertex 1 1 3
      vertex 5.3941 4 3
    endloop
  endfacet
  facet normal 0 0 1
    outer loop
      vertex 4 8 3
      vertex 4 5.3941 3
      vertex 5.3941 4 3
    endloop
  endfacet
  facet normal 0 0 1
    outer loop
      vertex 4 5.3941 3
      vertex 1 1 3
      vertex 4 4 3
    endloop
  endfacet
  facet normal 0 0 1
    outer loop
      vertex 4 8 3
      vertex 1 1 3
      vertex 4 5.3941 3
    endloop
  endfacet
  facet normal 0 -1 0
    outer loop
      vertex 18.57 12.15 0
      vertex 14.92 12.15 3
      vertex 14.92 12.15 0
    endloop
  endfacet
  facet normal 0 -1 0
    outer loop
      vertex 18.57 12.15 0
      vertex 18.57 12.15 3
      vertex 14.92 12.15 3
    endloop
  endfacet
  facet normal -1 0 0
    outer loop
      vertex 18.57 1 0
      vertex 18.57 12.15 3
      vertex 18.57 12.15 0
    endloop
  endfacet
  facet normal -1 0 0
    outer loop
      vertex 18.57 1 0
      vertex 18.57 1 3
      vertex 18.57 12.15 3
    endloop
  endfacet
  facet normal 0 -1 0
    outer loop
      vertex 28.97 1 0
      vertex 18.57 1 3
      vertex 18.57 1 0
    endloop
  endfacet
  facet normal 0 -1 0
    outer loop
      vertex 28.97 1 0
      vertex 28.97 1 3
      vertex 18.57 1 3
    endloop
  endfacet
  facet normal 1 0 0
    outer loop
      vertex 28.97 12.15 0
      vertex 28.97 1 3
      vertex 28.97 1 0
    endloop
  endfacet
  facet normal 1 0 -0
    outer loop
      vertex 28.97 12.15 0
      vertex 28.97 12.15 3
      vertex 28.97 1 3
    endloop
  endfacet
  facet normal 0 -1 0
    outer loop
      vertex 32.62 12.15 0
      vertex 28.97 12.15 3
      vertex 28.97 12.15 0
    endloop
  endfacet
  facet normal 0 -1 0
    outer loop
      vertex 32.62 12.15 0
      vertex 32.62 12.15 3
      vertex 28.97 12.15 3
    endloop
  endfacet
  facet normal -1 0 0
    outer loop
      vertex 32.62 1 0
      vertex 32.62 12.15 3
      vertex 32.62 12.15 0
    endloop
  endfacet
  facet normal -1 0 0
    outer loop
      vertex 32.62 1 0
      vertex 32.62 1 3
      vertex 32.62 12.15 3
    endloop
  endfacet
  facet normal 0 -1 0
    outer loop
      vertex 43.44 1 0
      vertex 32.62 1 3
      vertex 32.62 1 0
    endloop
  endfacet
  facet normal 0 -1 0
    outer loop
      vertex 43.44 1 0
      vertex 43.44 1 3
      vertex 32.62 1 3
    endloop
  endfacet
  facet normal 1 0 0
    outer loop
      vertex 43.44 12.15 0
      vertex 43.44 1 3
      vertex 43.44 1 0
    endloop
  endfacet
  facet normal 1 0 -0
    outer loop
      vertex 43.44 12.15 0
      vertex 43.44 12.15 3
      vertex 43.44 1 3
    endloop
  endfacet
  facet normal 0 -1 0
    outer loop
      vertex 47.09 12.15 0
      vertex 43.44 12.15 3
      vertex 43.44 12.15 0
    endloop
  endfacet
  facet normal 0 -1 0
    outer loop
      vertex 47.09 12.15 0
      vertex 47.09 12.15 3
      vertex 43.44 12.15 3
    endloop
  endfacet
  facet normal -1 0 0
    outer loop
      vertex 47.09 3.68263 0
      vertex 47.09 12.15 3
      vertex 47.09 12.15 0
    endloop
  endfacet
  facet normal -1 0 0
    outer loop
      vertex 47.09 3.68263 0
      vertex 47.09 3.68263 3
      vertex 47.09 12.15 3
    endloop
  endfacet
  facet normal 0.8404 -0.541967 0
    outer loop
      vertex 60.76 24.88 0
      vertex 47.09 3.68263 3
      vertex 47.09 3.68263 0
    endloop
  endfacet
  facet normal 0.8404 -0.541967 0
    outer loop
      vertex 60.76 24.88 0
      vertex 60.76 24.88 3
      vertex 47.09 3.68263 3
    endloop
  endfacet
  facet normal 0.859362 0.511367 0
    outer loop
      vertex 45.36 50.76 0
      vertex 60.76 24.88 3
      vertex 60.76 24.88 0
    endloop
  endfacet
  facet normal 0.859362 0.511367 -0
    outer loop
      vertex 45.36 50.76 0
      vertex 45.36 50.76 3
      vertex 60.76 24.88 3
    endloop
  endfacet
  facet normal 0 1 0
    outer loop
      vertex 1 50.76 0
      vertex 45.36 50.76 3
      vertex 45.36 50.76 0
    endloop
  endfacet
  facet normal 0 1 0
    outer loop
      vertex 1 50.76 0
      vertex 1 50.76 3
      vertex 45.36 50.76 3
    endloop
  endfacet
  facet normal -1 0 0
    outer loop
      vertex 1 1 0
      vertex 1 50.76 3
      vertex 1 50.76 0
    endloop
  endfacet
  facet normal -1 0 0
    outer loop
      vertex 1 1 0
      vertex 1 1 3
      vertex 1 50.76 3
    endloop
  endfacet
  facet normal 0 -1 0
    outer loop
      vertex 14.92 1 0
      vertex 1 1 3
      vertex 1 1 0
    endloop
  endfacet
  facet normal 0 -1 0
    outer loop
      vertex 14.92 1 0
      vertex 14.92 1 3
      vertex 1 1 3
    endloop
  endfacet
  facet normal 1 0 0
    outer loop
      vertex 14.92 12.15 0
      vertex 14.92 1 3
      vertex 14.92 1 0
    endloop
  endfacet
  facet normal 1 0 -0
    outer loop
      vertex 14.92 12.15 0
      vertex 14.92 12.15 3
      vertex 14.92 1 3
    endloop
  endfacet
  facet normal 0 -1 0
    outer loop
      vertex 9.63412 47.76 0
      vertex 9.63412 47.76 3
      vertex 6.24001 47.76 0
    endloop
  endfacet
  facet normal 0 -1 0
    outer loop
      vertex 6.24001 47.76 3
      vertex 6.24001 47.76 0
      vertex 9.63412 47.76 3
    endloop
  endfacet
  facet normal -0.707107 -0.707107 0
    outer loop
      vertex 42.6478 14.7463 0
      vertex 42.6478 14.7463 3
      vertex 9.63412 47.76 0
    endloop
  endfacet
  facet normal -0.707107 -0.707107 -0
    outer loop
      vertex 9.63412 47.76 3
      vertex 9.63412 47.76 0
      vertex 42.6478 14.7463 3
    endloop
  endfacet
  facet normal -0.45398 0.891012 0
    outer loop
      vertex 41.0129 13.9133 0
      vertex 41.0129 13.9133 3
      vertex 42.6478 14.7463 0
    endloop
  endfacet
  facet normal -0.45398 0.891012 0
    outer loop
      vertex 42.6478 14.7463 3
      vertex 42.6478 14.7463 0
      vertex 41.0129 13.9133 3
    endloop
  endfacet
  facet normal -0.951077 0.308954 0
    outer loop
      vertex 40.7858 13.2142 0
      vertex 40.7858 13.2142 3
      vertex 41.0129 13.9133 0
    endloop
  endfacet
  facet normal -0.951077 0.308954 0
    outer loop
      vertex 41.0129 13.9133 3
      vertex 41.0129 13.9133 0
      vertex 40.7858 13.2142 3
    endloop
  endfacet
  facet normal 0.707107 0.707107 -0
    outer loop
      vertex 6.24001 47.76 0
      vertex 6.24001 47.76 3
      vertex 40.7858 13.2142 0
    endloop
  endfacet
  facet normal 0.707107 0.707107 0
    outer loop
      vertex 40.7858 13.2142 3
      vertex 40.7858 13.2142 0
      vertex 6.24001 47.76 3
    endloop
  endfacet
  facet normal 0 1 0
    outer loop
      vertex 44.85 15.15 0
      vertex 44.85 15.15 3
      vertex 47.09 15.15 0
    endloop
  endfacet
  facet normal 0 1 0
    outer loop
      vertex 47.09 15.15 3
      vertex 47.09 15.15 0
      vertex 44.85 15.15 3
    endloop
  endfacet
  facet normal 0.707107 0.707107 -0
    outer loop
      vertex 12.24 47.76 0
      vertex 12.24 47.76 3
      vertex 44.85 15.15 0
    endloop
  endfacet
  facet normal 0.707107 0.707107 0
    outer loop
      vertex 44.85 15.15 3
      vertex 44.85 15.15 0
      vertex 12.24 47.76 3
    endloop
  endfacet
  facet normal 0 -1 0
    outer loop
      vertex 15.6341 47.76 0
      vertex 15.6341 47.76 3
      vertex 12.24 47.76 0
    endloop
  endfacet
  facet normal 0 -1 0
    outer loop
      vertex 12.24 47.76 3
      vertex 12.24 47.76 0
      vertex 15.6341 47.76 3
    endloop
  endfacet
  facet normal -0.707107 -0.707107 0
    outer loop
      vertex 48.7996 14.5945 0
      vertex 48.7996 14.5945 3
      vertex 15.6341 47.76 0
    endloop
  endfacet
  facet normal -0.707107 -0.707107 -0
    outer loop
      vertex 15.6341 47.76 3
      vertex 15.6341 47.76 0
      vertex 48.7996 14.5945 3
    endloop
  endfacet
  facet normal 0.309026 0.951054 -0
    outer loop
      vertex 47.09 15.15 0
      vertex 47.09 15.15 3
      vertex 48.7996 14.5945 0
    endloop
  endfacet
  facet normal 0.309026 0.951054 0
    outer loop
      vertex 48.7996 14.5945 3
      vertex 48.7996 14.5945 0
      vertex 47.09 15.15 3
    endloop
  endfacet
  facet normal 0 -1 0
    outer loop
      vertex 21.6341 47.76 0
      vertex 21.6341 47.76 3
      vertex 18.24 47.76 0
    endloop
  endfacet
  facet normal 0 -1 0
    outer loop
      vertex 18.24 47.76 3
      vertex 18.24 47.76 0
      vertex 21.6341 47.76 3
    endloop
  endfacet
  facet normal -0.707107 -0.707107 0
    outer loop
      vertex 52.2205 17.1736 0
      vertex 52.2205 17.1736 3
      vertex 21.6341 47.76 0
    endloop
  endfacet
  facet normal -0.707107 -0.707107 -0
    outer loop
      vertex 21.6341 47.76 3
      vertex 21.6341 47.76 0
      vertex 52.2205 17.1736 3
    endloop
  endfacet
  facet normal -0.840394 0.541976 0
    outer loop
      vertex 50.8898 15.1102 0
      vertex 50.8898 15.1102 3
      vertex 52.2205 17.1736 0
    endloop
  endfacet
  facet normal -0.840394 0.541976 0
    outer loop
      vertex 52.2205 17.1736 3
      vertex 52.2205 17.1736 0
      vertex 50.8898 15.1102 3
    endloop
  endfacet
  facet normal 0.707107 0.707107 -0
    outer loop
      vertex 18.24 47.76 0
      vertex 18.24 47.76 3
      vertex 50.8898 15.1102 0
    endloop
  endfacet
  facet normal 0.707107 0.707107 0
    outer loop
      vertex 50.8898 15.1102 3
      vertex 50.8898 15.1102 0
      vertex 18.24 47.76 3
    endloop
  endfacet
  facet normal 0 -1 0
    outer loop
      vertex 27.6341 47.76 0
      vertex 27.6341 47.76 3
      vertex 24.24 47.76 0
    endloop
  endfacet
  facet normal 0 -1 0
    outer loop
      vertex 24.24 47.76 3
      vertex 24.24 47.76 0
      vertex 27.6341 47.76 3
    endloop
  endfacet
  facet normal -0.707107 -0.707107 0
    outer loop
      vertex 54.5728 20.8213 0
      vertex 54.5728 20.8213 3
      vertex 27.6341 47.76 0
    endloop
  endfacet
  facet normal -0.707107 -0.707107 -0
    outer loop
      vertex 27.6341 47.76 3
      vertex 27.6341 47.76 0
      vertex 54.5728 20.8213 3
    endloop
  endfacet
  facet normal -0.840425 0.541928 0
    outer loop
      vertex 53.2422 18.7578 0
      vertex 53.2422 18.7578 3
      vertex 54.5728 20.8213 0
    endloop
  endfacet
  facet normal -0.840425 0.541928 0
    outer loop
      vertex 54.5728 20.8213 3
      vertex 54.5728 20.8213 0
      vertex 53.2422 18.7578 3
    endloop
  endfacet
  facet normal 0.707107 0.707107 -0
    outer loop
      vertex 24.24 47.76 0
      vertex 24.24 47.76 3
      vertex 53.2422 18.7578 0
    endloop
  endfacet
  facet normal 0.707107 0.707107 0
    outer loop
      vertex 53.2422 18.7578 3
      vertex 53.2422 18.7578 0
      vertex 24.24 47.76 3
    endloop
  endfacet
  facet normal 0 -1 0
    outer loop
      vertex 33.6341 47.76 0
      vertex 33.6341 47.76 3
      vertex 30.24 47.76 0
    endloop
  endfacet
  facet normal 0 -1 0
    outer loop
      vertex 30.24 47.76 3
      vertex 30.24 47.76 0
      vertex 33.6341 47.76 3
    endloop
  endfacet
  facet normal -0.707107 -0.707107 0
    outer loop
      vertex 56.9252 24.4689 0
      vertex 56.9252 24.4689 3
      vertex 33.6341 47.76 0
    endloop
  endfacet
  facet normal -0.707107 -0.707107 -0
    outer loop
      vertex 33.6341 47.76 3
      vertex 33.6341 47.76 0
      vertex 56.9252 24.4689 3
    endloop
  endfacet
  facet normal -0.840394 0.541976 0
    outer loop
      vertex 55.5945 22.4055 0
      vertex 55.5945 22.4055 3
      vertex 56.9252 24.4689 0
    endloop
  endfacet
  facet normal -0.840394 0.541976 0
    outer loop
      vertex 56.9252 24.4689 3
      vertex 56.9252 24.4689 0
      vertex 55.5945 22.4055 3
    endloop
  endfacet
  facet normal 0.707107 0.707107 -0
    outer loop
      vertex 30.24 47.76 0
      vertex 30.24 47.76 3
      vertex 55.5945 22.4055 0
    endloop
  endfacet
  facet normal 0.707107 0.707107 0
    outer loop
      vertex 55.5945 22.4055 3
      vertex 55.5945 22.4055 0
      vertex 30.24 47.76 3
    endloop
  endfacet
  facet normal 0 -1 0
    outer loop
      vertex 39.6341 47.76 0
      vertex 39.6341 47.76 3
      vertex 36.24 47.76 0
    endloop
  endfacet
  facet normal 0 -1 0
    outer loop
      vertex 36.24 47.76 3
      vertex 36.24 47.76 0
      vertex 39.6341 47.76 3
    endloop
  endfacet
  facet normal -0.707103 -0.70711 0
    outer loop
      vertex 49.5616 37.8326 0
      vertex 49.5616 37.8326 3
      vertex 39.6341 47.76 0
    endloop
  endfacet
  facet normal -0.707103 -0.70711 -0
    outer loop
      vertex 39.6341 47.76 3
      vertex 39.6341 47.76 0
      vertex 49.5616 37.8326 3
    endloop
  endfacet
  facet normal -0.859365 -0.511362 0
    outer loop
      vertex 54.5491 29.4509 0
      vertex 54.5491 29.4509 3
      vertex 49.5616 37.8326 0
    endloop
  endfacet
  facet normal -0.859365 -0.511362 -0
    outer loop
      vertex 49.5616 37.8326 3
      vertex 49.5616 37.8326 0
      vertex 54.5491 29.4509 3
    endloop
  endfacet
  facet normal 0.707107 0.707107 -0
    outer loop
      vertex 36.24 47.76 0
      vertex 36.24 47.76 3
      vertex 54.5491 29.4509 0
    endloop
  endfacet
  facet normal 0.707107 0.707107 0
    outer loop
      vertex 54.5491 29.4509 3
      vertex 54.5491 29.4509 0
      vertex 36.24 47.76 3
    endloop
  endfacet
  facet normal 0 -1 0
    outer loop
      vertex 43.6542 47.76 0
      vertex 43.6542 47.76 3
      vertex 42.24 47.76 0
    endloop
  endfacet
  facet normal 0 -1 0
    outer loop
      vertex 42.24 47.76 3
      vertex 42.24 47.76 0
      vertex 43.6542 47.76 3
    endloop
  endfacet
  facet normal -0.859363 -0.511366 0
    outer loop
      vertex 45.7323 44.2677 0
      vertex 45.7323 44.2677 3
      vertex 43.6542 47.76 0
    endloop
  endfacet
  facet normal -0.859363 -0.511366 -0
    outer loop
      vertex 43.6542 47.76 3
      vertex 43.6542 47.76 0
      vertex 45.7323 44.2677 3
    endloop
  endfacet
  facet normal 0.707107 0.707107 -0
    outer loop
      vertex 42.24 47.76 0
      vertex 42.24 47.76 3
      vertex 45.7323 44.2677 0
    endloop
  endfacet
  facet normal 0.707107 0.707107 0
    outer loop
      vertex 45.7323 44.2677 3
      vertex 45.7323 44.2677 0
      vertex 42.24 47.76 3
    endloop
  endfacet
  facet normal 0.890997 0.454008 -0
    outer loop
      vertex 34.3833 14.577 0
      vertex 34.3833 14.577 3
      vertex 35.381 12.619 0
    endloop
  endfacet
  facet normal 0.890997 0.454008 0
    outer loop
      vertex 35.381 12.619 3
      vertex 35.381 12.619 0
      vertex 34.3833 14.577 3
    endloop
  endfacet
  facet normal 0.309059 0.951043 -0
    outer loop
      vertex 32.9607 15.0393 0
      vertex 32.9607 15.0393 3
      vertex 34.3833 14.577 0
    endloop
  endfacet
  facet normal 0.309059 0.951043 0
    outer loop
      vertex 34.3833 14.577 3
      vertex 34.3833 14.577 0
      vertex 32.9607 15.0393 3
    endloop
  endfacet
  facet normal 0.707107 0.707107 -0
    outer loop
      vertex 4 44 0
      vertex 4 44 3
      vertex 32.9607 15.0393 0
    endloop
  endfacet
  facet normal 0.707107 0.707107 0
    outer loop
      vertex 32.9607 15.0393 3
      vertex 32.9607 15.0393 0
      vertex 4 44 3
    endloop
  endfacet
  facet normal 1 0 -0
    outer loop
      vertex 4 47.3941 0
      vertex 4 47.3941 3
      vertex 4 44 0
    endloop
  endfacet
  facet normal 1 -0 0
    outer loop
      vertex 4 44 3
      vertex 4 44 0
      vertex 4 47.3941 3
    endloop
  endfacet
  facet normal -0.707107 -0.707107 0
    outer loop
      vertex 40.44 10.9541 0
      vertex 40.44 10.9541 3
      vertex 4 47.3941 0
    endloop
  endfacet
  facet normal -0.707107 -0.707107 -0
    outer loop
      vertex 4 47.3941 3
      vertex 4 47.3941 0
      vertex 40.44 10.9541 3
    endloop
  endfacet
  facet normal -1 0 0
    outer loop
      vertex 40.44 7.56001 0
      vertex 40.44 7.56001 3
      vertex 40.44 10.9541 0
    endloop
  endfacet
  facet normal -1 -0 -0
    outer loop
      vertex 40.44 10.9541 3
      vertex 40.44 10.9541 0
      vertex 40.44 7.56001 3
    endloop
  endfacet
  facet normal 0.707106 0.707107 -0
    outer loop
      vertex 35.381 12.619 0
      vertex 35.381 12.619 3
      vertex 40.44 7.56001 0
    endloop
  endfacet
  facet normal 0.707106 0.707107 0
    outer loop
      vertex 40.44 7.56001 3
      vertex 40.44 7.56001 0
      vertex 35.381 12.619 3
    endloop
  endfacet
  facet normal 1 0 -0
    outer loop
      vertex 4 41.3941 0
      vertex 4 41.3941 3
      vertex 4 38 0
    endloop
  endfacet
  facet normal 1 -0 0
    outer loop
      vertex 4 38 3
      vertex 4 38 0
      vertex 4 41.3941 3
    endloop
  endfacet
  facet normal -0.707107 -0.707107 0
    outer loop
      vertex 30.2441 15.15 0
      vertex 30.2441 15.15 3
      vertex 4 41.3941 0
    endloop
  endfacet
  facet normal -0.707107 -0.707107 -0
    outer loop
      vertex 4 41.3941 3
      vertex 4 41.3941 0
      vertex 30.2441 15.15 3
    endloop
  endfacet
  facet normal 0 1 0
    outer loop
      vertex 28.97 15.15 0
      vertex 28.97 15.15 3
      vertex 30.2441 15.15 0
    endloop
  endfacet
  facet normal 0 1 0
    outer loop
      vertex 30.2441 15.15 3
      vertex 30.2441 15.15 0
      vertex 28.97 15.15 3
    endloop
  endfacet
  facet normal -0.454002 0.891001 0
    outer loop
      vertex 27.5656 14.4344 0
      vertex 27.5656 14.4344 3
      vertex 28.97 15.15 0
    endloop
  endfacet
  facet normal -0.454002 0.891001 0
    outer loop
      vertex 28.97 15.15 3
      vertex 28.97 15.15 0
      vertex 27.5656 14.4344 3
    endloop
  endfacet
  facet normal 0.707107 0.707107 -0
    outer loop
      vertex 4 38 0
      vertex 4 38 3
      vertex 27.5656 14.4344 0
    endloop
  endfacet
  facet normal 0.707107 0.707107 0
    outer loop
      vertex 27.5656 14.4344 3
      vertex 27.5656 14.4344 0
      vertex 4 38 3
    endloop
  endfacet
  facet normal 1 0 -0
    outer loop
      vertex 4 35.3941 0
      vertex 4 35.3941 3
      vertex 4 32 0
    endloop
  endfacet
  facet normal 1 -0 0
    outer loop
      vertex 4 32 3
      vertex 4 32 0
      vertex 4 35.3941 3
    endloop
  endfacet
  facet normal -0.707107 -0.707107 0
    outer loop
      vertex 26.2825 13.1116 0
      vertex 26.2825 13.1116 3
      vertex 4 35.3941 0
    endloop
  endfacet
  facet normal -0.707107 -0.707107 -0
    outer loop
      vertex 4 35.3941 3
      vertex 4 35.3941 0
      vertex 26.2825 13.1116 3
    endloop
  endfacet
  facet normal -0.95104 0.309068 0
    outer loop
      vertex 25.97 12.15 0
      vertex 25.97 12.15 3
      vertex 26.2825 13.1116 0
    endloop
  endfacet
  facet normal -0.95104 0.309068 0
    outer loop
      vertex 26.2825 13.1116 3
      vertex 26.2825 13.1116 0
      vertex 25.97 12.15 3
    endloop
  endfacet
  facet normal -1 0 0
    outer loop
      vertex 25.97 10.03 0
      vertex 25.97 10.03 3
      vertex 25.97 12.15 0
    endloop
  endfacet
  facet normal -1 -0 -0
    outer loop
      vertex 25.97 12.15 3
      vertex 25.97 12.15 0
      vertex 25.97 10.03 3
    endloop
  endfacet
  facet normal 0.707107 0.707107 -0
    outer loop
      vertex 4 32 0
      vertex 4 32 3
      vertex 25.97 10.03 0
    endloop
  endfacet
  facet normal 0.707107 0.707107 0
    outer loop
      vertex 25.97 10.03 3
      vertex 25.97 10.03 0
      vertex 4 32 3
    endloop
  endfacet
  facet normal 1 0 -0
    outer loop
      vertex 4 29.3941 0
      vertex 4 29.3941 3
      vertex 4 26 0
    endloop
  endfacet
  facet normal 1 -0 0
    outer loop
      vertex 4 26 3
      vertex 4 26 0
      vertex 4 29.3941 3
    endloop
  endfacet
  facet normal -0.707107 -0.707107 0
    outer loop
      vertex 18.2441 15.15 0
      vertex 18.2441 15.15 3
      vertex 4 29.3941 0
    endloop
  endfacet
  facet normal -0.707107 -0.707107 -0
    outer loop
      vertex 4 29.3941 3
      vertex 4 29.3941 0
      vertex 18.2441 15.15 3
    endloop
  endfacet
  facet normal 0 1 0
    outer loop
      vertex 14.92 15.15 0
      vertex 14.92 15.15 3
      vertex 18.2441 15.15 0
    endloop
  endfacet
  facet normal 0 1 0
    outer loop
      vertex 18.2441 15.15 3
      vertex 18.2441 15.15 0
      vertex 14.92 15.15 3
    endloop
  endfacet
  facet normal -0.45335 0.891333 0
    outer loop
      vertex 14.8736 15.1264 0
      vertex 14.8736 15.1264 3
      vertex 14.92 15.15 0
    endloop
  endfacet
  facet normal -0.45335 0.891333 0
    outer loop
      vertex 14.92 15.15 3
      vertex 14.92 15.15 0
      vertex 14.8736 15.1264 3
    endloop
  endfacet
  facet normal 0.707107 0.707107 -0
    outer loop
      vertex 4 26 0
      vertex 4 26 3
      vertex 14.8736 15.1264 0
    endloop
  endfacet
  facet normal 0.707107 0.707107 0
    outer loop
      vertex 14.8736 15.1264 3
      vertex 14.8736 15.1264 0
      vertex 4 26 3
    endloop
  endfacet
  facet normal 1 0 -0
    outer loop
      vertex 4 23.3941 0
      vertex 4 23.3941 3
      vertex 4 20 0
    endloop
  endfacet
  facet normal 1 -0 0
    outer loop
      vertex 4 20 3
      vertex 4 20 0
      vertex 4 23.3941 3
    endloop
  endfacet
  facet normal -0.707107 -0.707107 0
    outer loop
      vertex 13.1473 14.2468 0
      vertex 13.1473 14.2468 3
      vertex 4 23.3941 0
    endloop
  endfacet
  facet normal -0.707107 -0.707107 -0
    outer loop
      vertex 4 23.3941 3
      vertex 4 23.3941 0
      vertex 13.1473 14.2468 3
    endloop
  endfacet
  facet normal -0.454118 0.890942 0
    outer loop
      vertex 12.493 13.9133 0
      vertex 12.493 13.9133 3
      vertex 13.1473 14.2468 0
    endloop
  endfacet
  facet normal -0.454118 0.890942 0
    outer loop
      vertex 13.1473 14.2468 3
      vertex 13.1473 14.2468 0
      vertex 12.493 13.9133 3
    endloop
  endfacet
  facet normal -0.951046 0.309051 0
    outer loop
      vertex 11.92 12.15 0
      vertex 11.92 12.15 3
      vertex 12.493 13.9133 0
    endloop
  endfacet
  facet normal -0.951046 0.309051 0
    outer loop
      vertex 12.493 13.9133 3
      vertex 12.493 13.9133 0
      vertex 11.92 12.15 3
    endloop
  endfacet
  facet normal -1 0 0
    outer loop
      vertex 11.92 12.08 0
      vertex 11.92 12.08 3
      vertex 11.92 12.15 0
    endloop
  endfacet
  facet normal -1 -0 -0
    outer loop
      vertex 11.92 12.15 3
      vertex 11.92 12.15 0
      vertex 11.92 12.08 3
    endloop
  endfacet
  facet normal 0.707107 0.707107 -0
    outer loop
      vertex 4 20 0
      vertex 4 20 3
      vertex 11.92 12.08 0
    endloop
  endfacet
  facet normal 0.707107 0.707107 0
    outer loop
      vertex 11.92 12.08 3
      vertex 11.92 12.08 0
      vertex 4 20 3
    endloop
  endfacet
  facet normal 1 0 -0
    outer loop
      vertex 4 17.3941 0
      vertex 4 17.3941 3
      vertex 4 14 0
    endloop
  endfacet
  facet normal 1 -0 0
    outer loop
      vertex 4 14 3
      vertex 4 14 0
      vertex 4 17.3941 3
    endloop
  endfacet
  facet normal -0.707106 -0.707107 0
    outer loop
      vertex 11.92 9.47411 0
      vertex 11.92 9.47411 3
      vertex 4 17.3941 0
    endloop
  endfacet
  facet normal -0.707106 -0.707107 -0
    outer loop
      vertex 4 17.3941 3
      vertex 4 17.3941 0
      vertex 11.92 9.47411 3
    endloop
  endfacet
  facet normal -1 0 0
    outer loop
      vertex 11.92 6.08 0
      vertex 11.92 6.08 3
      vertex 11.92 9.47411 0
    endloop
  endfacet
  facet normal -1 -0 -0
    outer loop
      vertex 11.92 9.47411 3
      vertex 11.92 9.47411 0
      vertex 11.92 6.08 3
    endloop
  endfacet
  facet normal 0.707107 0.707107 -0
    outer loop
      vertex 4 14 0
      vertex 4 14 3
      vertex 11.92 6.08 0
    endloop
  endfacet
  facet normal 0.707107 0.707107 0
    outer loop
      vertex 11.92 6.08 3
      vertex 11.92 6.08 0
      vertex 4 14 3
    endloop
  endfacet
  facet normal -0.707107 -0.707107 0
    outer loop
      vertex 49.8681 13.526 0
      vertex 49.8681 13.526 3
      vertex 48.891 14.5031 0
    endloop
  endfacet
  facet normal -0.707107 -0.707107 -0
    outer loop
      vertex 48.891 14.5031 3
      vertex 48.891 14.5031 0
      vertex 49.8681 13.526 3
    endloop
  endfacet
  facet normal -0.840454 0.541882 0
    outer loop
      vertex 49.6004 13.1108 0
      vertex 49.6004 13.1108 3
      vertex 49.8681 13.526 0
    endloop
  endfacet
  facet normal -0.840454 0.541882 0
    outer loop
      vertex 49.8681 13.526 3
      vertex 49.8681 13.526 0
      vertex 49.6004 13.1108 3
    endloop
  endfacet
  facet normal 0.89101 0.453984 -0
    outer loop
      vertex 48.891 14.5031 0
      vertex 48.891 14.5031 3
      vertex 49.6004 13.1108 0
    endloop
  endfacet
  facet normal 0.89101 0.453984 0
    outer loop
      vertex 49.6004 13.1108 3
      vertex 49.6004 13.1108 0
      vertex 48.891 14.5031 3
    endloop
  endfacet
  facet normal 1 0 -0
    outer loop
      vertex 21.57 11.8241 0
      vertex 21.57 11.8241 3
      vertex 21.57 8.43001 0
    endloop
  endfacet
  facet normal 1 -0 0
    outer loop
      vertex 21.57 8.43001 3
      vertex 21.57 8.43001 0
      vertex 21.57 11.8241 3
    endloop
  endfacet
  facet normal -0.707105 -0.707108 0
    outer loop
      vertex 25.97 7.42412 0
      vertex 25.97 7.42412 3
      vertex 21.57 11.8241 0
    endloop
  endfacet
  facet normal -0.707105 -0.707108 -0
    outer loop
      vertex 21.57 11.8241 3
      vertex 21.57 11.8241 0
      vertex 25.97 7.42412 3
    endloop
  endfacet
  facet normal -1 0 0
    outer loop
      vertex 25.97 4.03001 0
      vertex 25.97 4.03001 3
      vertex 25.97 7.42412 0
    endloop
  endfacet
  facet normal -1 -0 -0
    outer loop
      vertex 25.97 7.42412 3
      vertex 25.97 7.42412 0
      vertex 25.97 4.03001 3
    endloop
  endfacet
  facet normal 0.707107 0.707107 -0
    outer loop
      vertex 21.57 8.43001 0
      vertex 21.57 8.43001 3
      vertex 25.97 4.03001 0
    endloop
  endfacet
  facet normal 0.707107 0.707107 0
    outer loop
      vertex 25.97 4.03001 3
      vertex 25.97 4.03001 0
      vertex 21.57 8.43001 3
    endloop
  endfacet
  facet normal 0.707107 0.707107 -0
    outer loop
      vertex 4 8 0
      vertex 4 8 3
      vertex 8 4 0
    endloop
  endfacet
  facet normal 0.707107 0.707107 0
    outer loop
      vertex 8 4 3
      vertex 8 4 0
      vertex 4 8 3
    endloop
  endfacet
  facet normal 1 0 -0
    outer loop
      vertex 4 11.3941 0
      vertex 4 11.3941 3
      vertex 4 8 0
    endloop
  endfacet
  facet normal 1 -0 0
    outer loop
      vertex 4 8 3
      vertex 4 8 0
      vertex 4 11.3941 3
    endloop
  endfacet
  facet normal -0.707107 -0.707107 0
    outer loop
      vertex 11.3941 4 0
      vertex 11.3941 4 3
      vertex 4 11.3941 0
    endloop
  endfacet
  facet normal -0.707107 -0.707107 -0
    outer loop
      vertex 4 11.3941 3
      vertex 4 11.3941 0
      vertex 11.3941 4 3
    endloop
  endfacet
  facet normal 0 1 0
    outer loop
      vertex 8 4 0
      vertex 8 4 3
      vertex 11.3941 4 0
    endloop
  endfacet
  facet normal 0 1 0
    outer loop
      vertex 11.3941 4 3
      vertex 11.3941 4 0
      vertex 8 4 3
    endloop
  endfacet
  facet normal 0.707107 0.707107 -0
    outer loop
      vertex 35.62 6.38 0
      vertex 35.62 6.38 3
      vertex 38 4 0
    endloop
  endfacet
  facet normal 0.707107 0.707107 0
    outer loop
      vertex 38 4 3
      vertex 38 4 0
      vertex 35.62 6.38 3
    endloop
  endfacet
  facet normal 1 0 -0
    outer loop
      vertex 35.62 9.77411 0
      vertex 35.62 9.77411 3
      vertex 35.62 6.38 0
    endloop
  endfacet
  facet normal 1 -0 0
    outer loop
      vertex 35.62 6.38 3
      vertex 35.62 6.38 0
      vertex 35.62 9.77411 3
    endloop
  endfacet
  facet normal -0.707106 -0.707108 0
    outer loop
      vertex 40.44 4.95412 0
      vertex 40.44 4.95412 3
      vertex 35.62 9.77411 0
    endloop
  endfacet
  facet normal -0.707106 -0.707108 -0
    outer loop
      vertex 35.62 9.77411 3
      vertex 35.62 9.77411 0
      vertex 40.44 4.95412 3
    endloop
  endfacet
  facet normal -1 0 0
    outer loop
      vertex 40.44 4 0
      vertex 40.44 4 3
      vertex 40.44 4.95412 0
    endloop
  endfacet
  facet normal -1 -0 -0
    outer loop
      vertex 40.44 4.95412 3
      vertex 40.44 4.95412 0
      vertex 40.44 4 3
    endloop
  endfacet
  facet normal 0 1 0
    outer loop
      vertex 38 4 0
      vertex 38 4 3
      vertex 40.44 4 0
    endloop
  endfacet
  facet normal 0 1 0
    outer loop
      vertex 40.44 4 3
      vertex 40.44 4 0
      vertex 38 4 3
    endloop
  endfacet
  facet normal 1 0 -0
    outer loop
      vertex 21.57 5.82411 0
      vertex 21.57 5.82411 3
      vertex 21.57 4 0
    endloop
  endfacet
  facet normal 1 -0 0
    outer loop
      vertex 21.57 4 3
      vertex 21.57 4 0
      vertex 21.57 5.82411 3
    endloop
  endfacet
  facet normal -0.707109 -0.707105 0
    outer loop
      vertex 23.3941 4 0
      vertex 23.3941 4 3
      vertex 21.57 5.82411 0
    endloop
  endfacet
  facet normal -0.707109 -0.707105 -0
    outer loop
      vertex 21.57 5.82411 3
      vertex 21.57 5.82411 0
      vertex 23.3941 4 3
    endloop
  endfacet
  facet normal 0 1 0
    outer loop
      vertex 21.57 4 0
      vertex 21.57 4 3
      vertex 23.3941 4 0
    endloop
  endfacet
  facet normal 0 1 0
    outer loop
      vertex 23.3941 4 3
      vertex 23.3941 4 0
      vertex 21.57 4 3
    endloop
  endfacet
  facet normal 1 0 -0
    outer loop
      vertex 4 5.3941 0
      vertex 4 5.3941 3
      vertex 4 4 0
    endloop
  endfacet
  facet normal 1 -0 0
    outer loop
      vertex 4 4 3
      vertex 4 4 0
      vertex 4 5.3941 3
    endloop
  endfacet
  facet normal -0.707107 -0.707107 0
    outer loop
      vertex 5.3941 4 0
      vertex 5.3941 4 3
      vertex 4 5.3941 0
    endloop
  endfacet
  facet normal -0.707107 -0.707107 -0
    outer loop
      vertex 4 5.3941 3
      vertex 4 5.3941 0
      vertex 5.3941 4 3
    endloop
  endfacet
  facet normal 0 1 0
    outer loop
      vertex 4 4 0
      vertex 4 4 3
      vertex 5.3941 4 0
    endloop
  endfacet
  facet normal 0 1 0
    outer loop
      vertex 5.3941 4 3
      vertex 5.3941 4 0
      vertex 4 4 3
    endloop
  endfacet
endsolid OpenSCAD_Model
